<?xml version="1.0" encoding="UTF-8"?>
<svg height="929" width="1693" xmlns="http://www.w3.org/2000/svg" version="1.1"><g data-h="929.0" data-w="1693.0" data-cy="464.5" data-cx="846.5" data-part="background"><path d="M0,0C558.69,0,1117.38,0,1693,0c0,306.57,0,613.14,0,929c-558.69,0-1117.38,0-1693,0C0,622.43,0,315.86,0,0Z" fill="#FCFCFC" /></g><g data-h="768.4" data-w="1288.8" data-cy="468.0" data-cx="844.9" data-part="part-1"><path d="M1098.56,83.81c.96,0,1.92,0,2.9,0c24.23,.05,47.65,2.08,71.54,6.19c.8,.14,1.6,.27,2.43,.41c16.19,2.76,31.85,7.08,47.45,12.15c.79,.26,1.59,.52,2.42,.79c19.59,6.38,38.58,14.06,56.83,23.67c1.96,1.03,3.94,2.02,5.91,3.02c25.69,13.04,49.76,30.48,70.96,49.96c1.29,1.13,2.58,2.25,3.88,3.38c3.56,3.11,7.1,6.26,10.62,9.43c.54,.48,1.08,.96,1.64,1.46c1.33,1.2,2.6,2.46,3.86,3.73c0,.66,0,1.32,0,2c.29,.12,.29,.12,1.75,.73c2.68,1.51,4.23,3.21,6.25,5.52c.4,.45,.4,.45,2.4,2.74c.86,.99,1.72,1.99,2.6,3.01c.91,1.02,1.82,2.05,2.73,3.07c18.75,21.27,34.89,44.9,48.2,69.92c1.01,1.9,2.05,3.77,3.11,5.65c19.85,35.63,33.07,77.05,38.54,117.43c.45,3.15,.97,6.29,1.49,9.43c2.39,15.02,3.29,29.62,3.24,44.81c0,.86,0,1.72-.01,2.6c-.07,14.81-.35,29.69-2.67,44.34c-.28,1.78-.54,3.56-.81,5.34c-.14,.89-.28,1.78-.42,2.69c-.4,2.73-.77,5.46-1.12,8.2c-1.27,9.67-2.88,18.95-5.65,28.33c-.73,2.55-1.41,5.12-2.09,7.69c-11.6,43.5-30.01,85.92-56.54,122.5c-.72,1.04-1.45,2.08-2.19,3.15c-8.65,12.4-18.09,24.16-28.4,35.23c-1.94,2.11-3.83,4.25-5.7,6.43c-3.72,4.26-7.64,8.27-11.65,12.25c-.66,.67-1.33,1.34-2.01,2.03c-4.52,4.51-9.21,8.75-14.05,12.91c-1.09,.96-2.19,1.92-3.28,2.89c-56.77,49.61-125.68,78.8-199.66,90.42c-1.01,.16-2.02,.32-3.06,.49c-14.17,2.11-28.26,2.39-42.56,2.39c-2.97,0-5.95,.02-8.93,.03c-86.95,.26-181.79-34.57-245.63-94.51C851,756,851,756,848,754c1.5-3.52,3.52-5.73,6.25-8.38c.43-.42,.43-.42,2.58-2.52c.9-.88,1.8-1.76,2.73-2.66c6.16-6.08,12.15-12.06,17.46-18.9c1.87-2.4,3.84-4.71,5.84-7C910.97,682.14,932.92,642.42,947,602c.46-1.22,.93-2.44,1.41-3.7c6.19-16.46,10.83-33.21,14.14-50.47C963,546,963,546,964,545c.43-2.56,.81-5.11,1.16-7.68c.1-.77,.21-1.55,.32-2.34c.34-2.47,.68-4.94,1.02-7.42c.34-2.47,.68-4.94,1.02-7.41c.21-1.53,.42-3.07,.63-4.61c.74-5.31,.74-5.31,1.85-7.54c2.26-14,2.22-28.17,2.25-42.31c0-.45,0-.45,.02-2.73c.04-10.29-.3-20.29-1.8-30.49c-.48-3.56-.7-7.07-.84-10.66c-.53-8.93-2.37-17.54-4.14-26.3c-.44-2.24-.82-4.49-1.17-6.75c-2.64-16.96-7.86-33.36-13.01-49.7c-.27-.87-.54-1.73-.82-2.63C937.19,295.04,914.82,255.34,887,222c-.41-.5-.41-.5-2.51-3.03C873.37,205.61,861.37,193.21,849,181c5.32-11.36,20.18-19.73,30-27c.34-.25,.34-.25,2.04-1.52c48.05-35.76,108.05-58.59,167.41-65.19c2.39-.27,4.77-.57,7.15-.88c.71-.09,1.42-.18,2.15-.27c.66-.09,1.32-.18,2-.26c2.41-.31,4.83-.6,7.25-.88c.72-.09,1.43-.18,2.17-.27c9.77-1.07,19.58-.93,29.39-.92Z" fill="#031936" /><path d="M577.78,86.63c2.87,0,5.74-.01,8.62-.04c20.55-.19,40.29,1.16,60.6,4.41c.89,.14,1.77,.28,2.69,.42c4.71,.77,9.39,1.66,14.06,2.64c.34,.07,.34,.07,2.06,.43c46.85,9.85,94.06,28.8,133.19,56.51c.67,.47,1.34,.94,2.03,1.42c9.09,6.39,17.89,12.95,26.27,20.24c2.52,2.18,5.08,4.28,7.7,6.34c-1.44,3.32-3.22,5.44-5.82,7.94c-.76,.74-1.52,1.49-2.3,2.25c-.81,.79-1.61,1.57-2.44,2.37c-5.9,5.8-11.49,11.57-16.58,18.09c-1.8,2.28-3.7,4.4-5.67,6.54c-27.42,30.66-50.32,70.31-63.81,109.06c-1.24,3.52-2.48,7.03-3.81,10.52c-5.18,13.75-9.25,27.92-12.57,42.23c-.13,.55-.13,.55-.8,3.31c-3.26,13.66-5.74,27.49-7.39,41.44c-.08,.73-.17,1.47-.26,2.22c-1.71,15.08-1.93,30.12-1.92,45.28c-.01,1.11-.01,2.23-.01,3.37c0,12.64,.49,24.88,2.38,37.38c.23,1.97,.46,3.93,.68,5.9c2.35,20.5,5.61,40.73,12.36,60.28c1.17,3.43,2.3,6.87,3.42,10.31c.89,2.69,1.78,5.38,2.67,8.07c.21,.65,.42,1.29,.64,1.95C753.48,657.23,789.57,708.15,834,752c-3.81,4.73-7.72,8.66-12.56,12.31c-.31,.24-.31,.24-1.85,1.42c-1.25,.96-2.51,1.92-3.77,2.88c-1.69,1.29-3.36,2.61-5.02,3.93c-14.3,11.3-29.9,20.63-45.8,29.46c-.87,.49-1.75,.97-2.65,1.47c-37.05,20.43-76.96,32.93-118.47,40.34c-1.15,.21-2.3,.42-3.49,.63C575.1,855.55,503.82,844.12,443,819c-.44-.18-.44-.18-2.69-1.1c-42.59-17.49-81.88-41.89-115.57-73.34c-2.63-2.46-5.3-4.86-7.99-7.25c-6.26-5.63-12.17-11.48-17.66-17.88c-1.65-1.92-3.31-3.81-5-5.71c-30.4-34.38-54.27-74.72-70.33-117.69c-.49-1.31-.98-2.61-1.49-3.91c-6.3-16.33-11.1-33.47-14.73-50.59c-.35-1.65-.72-3.29-1.1-4.93c-7.27-31.19-6.31-65.66-5.06-97.54c.03-1.02,.06-2.04,.09-3.09c.23-5.94,.9-11.58,2.05-17.42c.69-3.66,1.01-7.34,1.36-11.05c2.03-19.38,7.53-37.89,13.12-56.5c.23-.76,.46-1.53,.69-2.31c5.38-17.74,12.54-35.25,21.23-51.62c1.2-2.3,2.37-4.62,3.53-6.94c13.3-26.3,30.18-49.96,49.55-72.13c.29-.34,.29-.34,1.73-2.04C304.78,204.25,315.46,193.25,327,183c.28-.25,.28-.25,1.7-1.54C369.91,144.33,419.27,118.51,472,102c.35-.11,.35-.11,2.1-.67c18.12-5.79,37.31-9.65,56.18-11.98c1.99-.26,3.98-.55,5.96-.86c13.79-1.96,27.64-1.86,41.54-1.86Z" fill="#0178FB" /><path d="M340.15,246.77c.85-.02,1.7-.05,2.58-.08c.46-.01,.46-.01,2.83-.07c.99-.02,1.98-.05,3.01-.08c3.34-.09,6.68-.17,10.02-.26c1.17-.03,2.34-.06,3.55-.09c22.44-.58,44.89-.94,67.33-1.21c3.69-.05,7.37-.1,11.05-.14c.37-.01,.37-.01,2.22-.03c11.79-.16,23.58-.45,35.36-.8c12.15-.35,24.3-.55,36.46-.63c6.81-.04,13.6-.15,20.4-.43c46.08-1.8,46.08-1.8,64.58,14.96c7.3,7.06,13.91,14.71,20.1,22.75c4.49,5.85,8.98,11.3,14.69,16c7.36,6.17,13.35,11.64,14.55,21.53c.29,5.24,.2,10.43,.05,15.68c0,2.36,0,4.71,.01,7.07c0,6.35-.1,12.7-.22,19.04c-.09,5.98-.11,11.96-.13,17.94c-.03,11.82-.15,23.65-.31,35.47c-.15,11.48-.27,22.96-.35,34.43c0,.71-.01,1.42-.01,2.15c-.02,3.56-.04,7.12-.06,10.68c-.18,29.45-.48,58.9-.86,88.35c-3.54-.58-7.06-1.19-10.57-1.94c-16.03-3.34-31.07-4.34-47.43-4.06c-1.2,.02-2.39,.03-3.62,.05c-7.74,.33-15.19,1.78-22.75,3.33c-1.03,.2-2.05,.41-3.11,.63c-5.75,1.23-11.07,2.77-16.52,4.99c-.75,.29-1.49,.59-2.26,.89C515.85,563.56,496.66,581.47,485,606c-1.28,3.29-2.22,6.56-3,10c-.2,.81-.41,1.63-.62,2.46c-2.7,12.33-2.08,24.63,.96,36.78C483,658,483,658,483,661c-19.32,.09-38.65,.16-57.97,.21c-8.97,.02-17.95,.05-26.92,.09c-7.82,.04-15.64,.07-23.46,.08c-4.14,0-8.28,.01-12.42,.04c-3.9,.03-7.8,.04-11.7,.03c-1.43,0-2.86,.01-4.29,.03c-12.13,.12-12.13,.12-15.89-2.13c-3.53-3.52-6.08-6.59-6.85-11.61c0-1.19,0-2.37,0-3.6c-.01-.67-.01-1.34-.02-2.03c-.02-2.23,0-4.47,.01-6.71c0-1.62-.01-3.24-.02-4.87c-.01-4.45-.01-8.91,.01-13.36c.01-4.81-.01-9.62-.02-14.42c-.02-9.42-.01-18.83,0-28.24c.01-7.65,.01-15.3,0-22.95c0-1.09,0-2.18,0-3.3c0-2.21,0-4.42,0-6.63c-.01-20.74,0-41.47,.02-62.21c.02-17.79,.02-35.59,0-53.39c-.02-20.66-.03-41.32-.02-61.98c0-2.2,0-4.4,0-6.61c.01-1.08,.01-2.16,.01-3.28c0-7.64-.01-15.28-.02-22.93c-.01-9.31,0-18.62,.02-27.93c.01-4.75,.01-9.5,0-14.26c-.01-4.35-.01-8.69,.02-13.04c0-1.58,0-3.15-.01-4.73c-.01-2.14,0-4.27,.02-6.41c0-.6,0-.6,0-3.6c.78-5.1,3.3-8.18,7.06-11.57c3.23-2.24,5.76-2.81,9.59-2.92Z" fill="#FBFCFC" /><path d="M841,187c3.6,1.53,5.91,3.66,8.67,6.4c.89,.89,1.79,1.79,2.71,2.7c.92,.94,1.85,1.87,2.81,2.84c.91,.9,1.81,1.8,2.75,2.73c5.36,5.37,10.34,10.91,15.06,16.87c1.99,2.44,4.08,4.74,6.25,7.02C895.61,243.59,908.69,265.53,920,287c.44,.82,.87,1.63,1.32,2.47c12.23,23.07,21.4,47.48,28.68,72.53c.27,.93,.54,1.86,.82,2.82c4.68,16.4,7.37,33.13,9.98,49.95c.11,.68,.21,1.37,.33,2.07c1.45,9.57,2.05,19.02,2.14,28.71c.02,1.19,.03,2.38,.04,3.61c.03,3.87,.05,7.73,.07,11.59c0,.66,0,.66,.01,3.99c.05,20.82-1.24,41-4.76,61.52c-.82,4.87-1.46,9.76-2.09,14.66c-.56,3.18-1.48,6.03-2.54,9.08c-.54,2.01-1.06,4.03-1.56,6.06C945.51,583.43,936.56,609.65,924,635c-.48,.97-.96,1.95-1.46,2.95C915.81,651.49,908.38,664.42,900,677c-.21,.31-.21,.31-1.25,1.88C890.24,691.55,880.96,703.46,871,715c-.6,.71-1.21,1.41-1.83,2.14C860.53,727.15,851.44,736.75,842,746c-3.23-1.42-5.38-3.14-7.86-5.63c-.73-.73-1.45-1.45-2.19-2.2c-.75-.76-1.49-1.51-2.26-2.29c-.37-.37-.37-.37-2.23-2.23c-4.68-4.73-9.13-9.6-13.46-14.65c-.85-.96-1.69-1.93-2.56-2.92c-38.15-44.27-66.55-97.68-79.87-154.69c-.66-2.78-1.35-5.55-2.04-8.32c-3.4-13.92-5.81-27.68-7.24-41.94C722,509,722,509,721,506c-.1-1.9-.15-3.8-.16-5.71c-.01-1.18-.02-2.36-.03-3.57c0-1.28-.01-2.57-.01-3.89c-.01-1.34-.02-2.69-.02-4.03c-.02-4.33-.03-8.66-.03-12.99c0-.73,0-1.46,0-2.22c-.01-28.32,.63-55.68,7.7-83.29c.81-3.39,1.36-6.8,1.93-10.24c1.75-9.74,4.82-19.08,7.81-28.5c.68-2.16,1.34-4.32,1.98-6.5c2.14-7.26,4.82-14.11,7.83-21.06c.62-1.51,1.24-3.03,1.86-4.54C765.27,282.13,787.09,244.49,815,215c1.13-1.29,2.26-2.58,3.38-3.87c7.25-8.32,14.71-16.43,22.62-24.13Z" fill="#0177FB" /><path d="M1134,424c2.06,.44,2.06,.44,4,1c0,.99,0,1.98,0,3c13.53,0,27.06,0,41,0c0,4.99-1.31,6.03-4.5,9.75c-.42,.49-.42,.49-2.53,2.98c-.33,.38-.33,.38-1.97,2.27c1.9,4.43,5.08,7.37,8.42,10.78c.52,.73,1.04,1.47,1.58,2.22c-.33,1.32-.66,2.64-1,4c-13.53,0-27.06,0-41,0c-.11,5.84-.19,11.66-.18,17.49c0,1.98-.03,3.96-.08,5.93c-.32,14.19,1.64,22.76,10.75,33.71c2.47,3.05,4.59,6.32,6.76,9.58c.85,1.27,1.71,2.54,2.57,3.81c.88,1.28,1.75,2.57,2.62,3.86c.45,.66,.9,1.33,1.37,2.03c6.68,9.86,13.33,19.74,19.91,29.67c2.17,3.27,4.35,6.53,6.53,9.8c.8,1.2,1.61,2.41,2.41,3.62c.2,.29,.2,.29,1.17,1.75c3.06,4.58,6.11,9.17,9.17,13.75c4.23-3.77,7.12-8.39,10.25-13.06c4.79-7.08,9.65-14.08,14.75-20.94c2.18,.09,2.18,.09,5,1c1.92,2.16,3.51,4.19,5.13,6.56c.47,.67,.94,1.33,1.42,2.02c1.5,2.13,2.98,4.27,4.45,6.42c.97,1.4,1.94,2.8,2.91,4.2c1.81,2.61,3.6,5.23,5.39,7.85c1.94,2.85,3.91,5.68,5.9,8.5c4.26,6.07,8.41,12.22,12.56,18.37c2.33,3.45,4.66,6.89,7,10.34c.46,.68,.91,1.35,1.38,2.05c5.09,7.51,10.21,14.99,15.34,22.47c1.65,2.41,3.3,4.82,4.95,7.24c.57,.84,1.15,1.68,1.74,2.54c1.11,1.64,2.23,3.28,3.35,4.92c2.25,3.3,4.5,6.59,6.89,9.79c.65,.88,1.3,1.76,1.97,2.67c.54,.71,1.08,1.42,1.64,2.15c1.24,2.42,.74,3.38-.02,5.91c-.61,0-1.21,0-1.83,0c-14.73,.04-29.45,.1-44.17,.18c-7.12,.04-14.24,.08-21.36,.09c-6.87,.02-13.73,.05-20.6,.1c-2.62,.01-5.25,.02-7.87,.02c-3.67,0-7.33,.03-11,.06c-1.09,0-2.18-.01-3.31-.01c-.5,.01-.5,.01-3.02,.04c-.87,0-1.73,.01-2.63,.01c-2.21,.51-2.21,.51-4.01,2.54c-.4,.65-.79,1.3-1.2,1.97c1.65,.33,3.3,.66,5,1c-.75,6.63-.75,6.63-3,10c-.62-.16-1.24-.33-1.87-.5c-2.13-.5-2.13-.5-4.13-.5c-32.67,0-65.33,0-98,0c-.26-.51-.26-.51-1.6-3.09c-.71-1.36-1.42-2.71-2.13-4.07c-.35-.67-.69-1.34-1.05-2.03c-5.99-11.38-15.94-21.39-28.22-25.81c2.01-4.12,4.29-8.07,6.56-12.05c3.01-6.16,3.83-11.89,3.82-18.64c-.01-.78-.01-1.57-.01-2.38c-.14-7.31-1.15-15.26-6.13-20.94c-1.24-1.99-1.24-1.99-.69-4.33c1.73-3.18,3.66-6.18,5.7-9.16c.91-1.34,1.82-2.69,2.73-4.03c.24-.36,.24-.36,1.48-2.18c1.6-2.37,3.18-4.75,4.75-7.13c8.07-12.21,16.36-24.25,24.75-36.24c3.99-5.71,7.96-11.43,11.93-17.15c.6-.86,1.19-1.71,1.81-2.59c.63-.96,1.26-1.92,1.91-2.9c1.78-2.58,3.78-4.77,5.95-7.03c14.15-15.72,12.26-33.81,11.81-53.72c-.09-4.57-.11-9.13-.13-13.69c-.02-5.12-.06-10.23-.15-15.35c-.01-.77-.02-1.53-.04-2.33c-.02-1.43-.05-2.87-.08-4.31c-.03-1.61-.01-3.23,.03-4.85c.33-.33,.66-.66,1-1Z" fill="#233752" /><path d="M602.25,549.69c.36-.01,.36-.01,2.16-.03c14.2-.17,27.49,1.49,40.59,7.34c1.22,.41,2.43,.83,3.69,1.25C659.47,562.3,669.48,568.28,678,576c.82,.73,1.64,1.45,2.48,2.2c13.55,12.71,23.07,29.01,23.76,47.89c.22,11.7-.27,21.8-4.24,32.91c-.29,.89-.58,1.79-.87,2.71C692.58,680.24,677.11,695.06,660,704c-.47,5.49,.99,9,3.44,13.75c.35,.7,.7,1.4,1.07,2.13c2.89,5.5,6.25,9.74,10.7,14.1c1.84,2.08,2.51,3.28,2.79,6.02c-1,1-1,1-4.56,1.31c-16.93-.27-33.1-8.1-45.44-19.31c-.56-.76-1.13-1.52-1.71-2.3c-2.29-1.7-2.29-1.7-4.17-1.66c-.73,.11-1.46,.22-2.21,.34c-4.61,.61-9.12,.83-13.77,.89c-.81,.02-1.63,.03-2.47,.04c-17.39,.22-34.02,.37-50.67-5.31c-.69-.22-1.37-.45-2.08-.68c-23.19-7.77-44.59-22.69-56.16-44.62c-9.17-18.55-9.92-38.39-3.73-57.96C495.61,598.9,503.16,588.99,512,580c.67-.69,1.35-1.37,2.04-2.08c24.19-23.01,56.31-27.95,88.21-28.23Z" fill="#FBFCFD" /><path d="M1081.7,168.11c6.76,5.88,6.76,5.88,9.05,10.16c2.25,2.73,2.25,2.73,4.09,3.16c2.29,.05,4.5-.06,6.79-.24c11.92-.47,20.01,1.77,29,10c4.33,4.47,7.11,9.62,7.62,15.87c-.08,.64-.16,1.28-.25,1.94c.72,.11,1.45,.22,2.2,.34c8.34,1.96,14.95,7.8,19.8,14.66c5.19,8.41,5.81,17.25,5,27c-2.58,10.52-9.02,18.23-18,24c-7.49,4.34-14.57,4.14-23,4c-.27,.74-.54,1.49-.81,2.25c-4.09,9.45-13.13,14.86-22.31,18.63c-13.07,3.83-24.67,.63-36.53-5.18c-2.35-.7-2.35-.7-4.12,.09c-.53,.46-1.06,.92-1.6,1.4c-9.59,7.63-20.96,7.43-32.63,6.81c-9.49-1.48-17.78-6.74-24-14c-.16-.34-.16-.34-.95-2.05c-1.16-2.43-2.09-4.1-4.05-5.95c-3.24-.68-6.29-.75-9.59-.82c-10.66-.55-18.79-6.35-26-13.83c-5.9-7.35-8.16-17.15-7.79-26.4c1.16-9.01,5.01-16.51,11.38-22.95c1.42-.94,2.86-1.86,4.31-2.75c2.83-1.94,3.58-2.81,4.43-6.19c.26-2.27,.5-4.53,.73-6.8c1.12-6.88,5.25-11.49,10.59-15.7c4.82-3.46,8.53-4.7,14.51-4.48c5.2,.11,9.63,.12,13.57-3.6c1.89-2.07,3.61-4.26,5.34-6.46c5.9-7.08,14.94-10.86,23.83-12.71c14.28-1.21,27.81,.75,39.39,9.8Z" fill="#445570" /><path d="M1303.97,220.31c8.52,7.09,14.35,16.64,16.03,27.69c.23,4.67,.19,9.33,.13,14c-.01,1.25-.02,2.5-.03,3.79c-.03,3.07-.06,6.14-.1,9.21c.46-.02,.46-.02,2.8-.11c4.2,.14,5.99,1.47,9.2,4.11c3.01,4.03,3.38,7,3.4,11.97c.01,.69,.02,1.37,.02,2.07c.02,2.25,.02,4.49,.01,6.73c.01,1.57,.01,3.14,.02,4.71c.01,3.28,.01,6.56,0,9.85c-.02,4.19,0,8.39,.03,12.58c.02,3.24,.02,6.48,.02,9.72c0,1.54,0,3.09,.01,4.63c.11,15.28,.11,15.28-4.51,20.74c-2.79,1.7-4.88,2.25-8.12,2.28c-.82,.01-1.63,.02-2.47,.04c-.88,0-1.76,0-2.67,0c-.94,.01-1.88,.02-2.84,.03c-3.1,.03-6.2,.05-9.3,.06c-2.15,.01-4.31,.02-6.46,.03c-4.52,.02-9.04,.03-13.56,.04c-5.78,.01-11.57,.06-17.35,.12c-4.45,.03-8.9,.04-13.35,.05c-2.14,0-4.27,.02-6.4,.05c-2.99,.03-5.97,.03-8.96,.01c-.88,.02-1.76,.04-2.66,.06c-4.49-.06-7.09-.46-10.39-3.63c-3.51-4.46-3.6-7.37-3.65-12.9c0-.69-.01-1.37-.02-2.07c-.02-2.26-.03-4.52-.04-6.78c0-.78-.01-1.55-.01-2.35c-.02-4.09-.04-8.18-.05-12.27c-.01-4.22-.04-8.44-.08-12.66c-.03-3.25-.03-6.5-.04-9.75c0-1.56-.01-3.11-.03-4.67c-.03-2.18-.03-4.36-.02-6.54c-.01-1.24-.01-2.48-.02-3.75c.72-4.98,2.93-8.13,6.8-11.27c3.35-1.41,6.09-1.21,9.69-1.13c-.02-.92-.04-1.84-.06-2.79c-.07-3.47-.12-6.93-.16-10.39c-.02-1.49-.05-2.98-.08-4.47c-.19-8.45-.36-15.94,4.3-23.35c.48-.79,.96-1.57,1.46-2.38c1.48-1.91,2.98-3.78,4.54-5.62c.52-.62,1.05-1.24,1.59-1.88c14.18-15.45,36.89-15.74,53.38-3.81Z" fill="#44546E" /><path d="M1370.38,410.63c1.15-.02,2.31-.03,3.5-.04c17.24,.06,31.22,6.56,43.4,18.61c13.53,13.95,20.16,29.73,20.09,49.21c-.49,17.52-8.15,34.73-20.58,47.04c-12.79,11.71-28.26,18.16-45.6,17.99c-.53-.01-.53-.01-3.2-.03c-7.99-.16-14.66-1.05-21.99-4.41c-.93-.42-1.87-.85-2.83-1.29c-18.02-9.04-30.04-24.31-36.34-43.22c-4.4-17.8-2.39-34.63,6.3-50.74c8.44-13.46,20.18-23.58,34.87-29.75c.61-.26,1.22-.52,1.84-.79c6.8-2.63,13.31-2.66,20.54-2.58Z" fill="#45556F" /><path d="M1044.18,606.43c7.05,5,12.31,11.45,14.41,19.97c1.46,9.29,.75,18.17-3.59,26.6c-4.84,6.59-9.83,11.19-17,15c1.17,.42,2.34,.85,3.55,1.29c16.95,6.26,29.82,13.57,38.45,30.27c3.26,7.98,4.96,16.83,4,25.44c-1,1-1,1-2.92,1.12c-.42,0-.42,0-2.57,0c-.97,0-1.93,0-2.93,0c-.54,0-.54,0-3.25-.01c-.56,0-.56,0-3.4,0c-3.73,0-7.46,0-11.18-.01c-2.58,0-5.16-.01-7.73-.01c-6.11,0-12.21-.01-18.31-.02c-6.95-.01-13.89-.01-20.84-.02c-14.29-.01-28.58-.03-42.87-.05c-.03-2.39-.05-4.78-.07-7.18c-.01-.67-.01-1.34-.02-2.03c-.07-12.2,5.47-23.15,13.72-32.04c9.08-8.4,19.73-13.12,31.37-16.75c-.52-.3-1.04-.61-1.57-.92c-4.38-2.63-7.99-5.25-11.43-9.08c-.68-.74-1.36-1.48-2.06-2.25c-6.42-9.1-7.13-17.87-5.94-28.75c1.8-9.06,7.96-16.49,15.45-21.7c11.8-6.78,25.43-6.27,36.73,1.13Z" fill="#44546F" /><path d="M1134,424c2.06,.44,2.06,.44,4,1c0,.99,0,1.98,0,3c13.53,0,27.06,0,41,0c0,4.99-1.31,6.03-4.5,9.75c-.42,.49-.42,.49-2.53,2.98c-.33,.38-.33,.38-1.97,2.27c1.9,4.43,5.08,7.37,8.42,10.78c.52,.73,1.04,1.47,1.58,2.22c-.33,1.32-.66,2.64-1,4c-13.53,0-27.06,0-41,0c-.11,5.84-.19,11.66-.18,17.49c0,1.98-.03,3.96-.08,5.93c-.32,14.19,1.63,22.74,10.74,33.69c2.52,3.13,4.69,6.47,6.91,9.81c.88,1.31,1.76,2.61,2.65,3.92c.44,.64,.87,1.29,1.32,1.95c1.34,1.97,2.67,3.95,4.01,5.92c2.14,3.16,4.28,6.32,6.41,9.49c1.21,1.79,2.43,3.57,3.64,5.35c.74,1.08,1.47,2.16,2.22,3.28c.65,.95,1.3,1.9,1.97,2.89C1179,562,1179,562,1179,564c-1.98,0-3.96,0-6,0c.1,.31,.1,.31,.63,1.88c.12,.7,.24,1.4,.37,2.12c-.66,.66-1.32,1.32-2,2c-1.94-.12-1.94-.12-4-1c-1.75-2.06-1.75-2.06-3-4c-.58,.31-1.15,.62-1.75,.94c-.74,.35-1.48,.7-2.25,1.06c-.6,.29-1.2,.57-1.81,.87c-2.19,.13-2.19,.13-4.77-1.89c-.88-.92-1.76-1.84-2.67-2.79c-.45-.46-.45-.46-2.7-2.77C1147,558,1147,558,1147,556c-.99,0-1.98,0-3,0c-.23,.53-.47,1.06-.71,1.61c-1.68,3.11-3.77,5.84-5.91,8.64c-.43,.55-.85,1.11-1.28,1.68c-1.03,1.36-2.06,2.71-3.1,4.07c-3.56-.26-4.82-.82-7.39-3.4c-.76-.98-1.52-1.96-2.3-2.97c-.76-.98-1.53-1.96-2.32-2.97c-1.38-1.85-2.71-3.74-3.99-5.66c-4.09,1.8-7.54,4.45-11.12,7.06c-6.3,4.57-9.15,6.06-16.88,5.94c-.65-1.75-.65-1.75-1-4c.92-1.93,.92-1.93,2.4-3.96c.55-.77,1.11-1.54,1.68-2.33c.3-.42,.3-.42,1.86-2.52c1.3-1.81,2.6-3.62,3.9-5.43c.68-.94,1.37-1.89,2.07-2.86c3.43-4.76,6.75-9.58,10.09-14.4c1.21-1.74,2.42-3.48,3.63-5.22c.64-.97,1.28-1.95,1.95-2.95c1.79-2.61,3.8-4.81,5.99-7.09c14.14-15.72,12.25-33.81,11.8-53.71c-.09-4.57-.11-9.13-.13-13.69c-.02-5.12-.06-10.23-.15-15.35c-.01-.77-.02-1.53-.04-2.33c-.02-1.43-.05-2.87-.08-4.31c-.03-1.61-.01-3.23,.03-4.85c.33-.33,.66-.66,1-1Z" fill="#687790" /></g><g data-h="583.0" data-w="1517.2" data-cy="462.5" data-cx="842.5" data-part="connectors"><path d="M368.33,291.73c.32-.01,.32-.01,1.97-.02c2.15-.01,4.3-.01,6.45-.01c1.49,0,2.98-.01,4.47-.01c3.13-.01,6.26-.01,9.39-.01c4.01,.01,8.03-.01,12.04-.03c3.08-.01,6.16-.02,9.25-.01c1.48,0,2.96-.01,4.44-.02c2.06-.01,4.13,0,6.2,.01c1.18,0,2.36,0,3.57,0c2.89,.37,2.89,.37,4.77,1.49c1.67,2.8,1.49,5.08,1.49,8.32c.01,.65,.01,1.3,.01,1.97c.01,2.15,0,4.29-.02,6.43c0,1.49,0,2.99,0,4.48c0,3.12-.01,6.24-.02,9.37c-.03,4-.03,8.01-.02,12.01c0,3.08,0,6.16-.01,9.24c-.01,1.47-.01,2.95-.01,4.43c0,2.06-.01,4.12-.03,6.19c0,.58,0,.58-.01,3.56C432,362,432,362,430,365c-2.81,.37-2.81,.37-6.44,.37c-.66,.01-1.32,.01-2,.01c-2.19,.01-4.37,0-6.56-.02c-1.52,0-3.03,0-4.55,0c-3.18,0-6.36-.01-9.54-.02c-4.09-.03-8.17-.03-12.25-.02c-3.13,0-6.27,0-9.4-.01c-1.51-.01-3.01-.01-4.52-.01c-2.1,0-4.2-.01-6.3-.03c-1.2,0-2.4,0-3.63-.01C362,365,362,365,360,363c-.25-2.85-.25-2.85-.26-6.53c0-.67-.01-1.34-.01-2.03c-.01-2.22,0-4.44,0-6.66c0-1.54,0-3.08,0-4.62c0-3.22,0-6.45,.01-9.68c.01-4.14,0-8.29-.01-12.43c-.01-3.18,0-6.36,0-9.54c0-1.53,0-3.05,0-4.58c-.01-2.13,0-4.27,.01-6.4c0-1.22,0-2.43,.01-3.68c.5-5.65,3.72-5.11,8.58-5.12Z" fill="#0378FB" /><path d="M799.88,478.63c1.1-.02,2.21-.03,3.35-.04c15.48,.05,27.12,5.22,38.43,15.71c7.03,8.13,10.49,17.76,10.47,28.45c0,.57,0,.57,0,3.48C852,529,852,529,851,530c-3.1,.1-6.18,.14-9.28,.13c-.97,0-1.95,0-2.95,0c-3.23,.01-6.47,.01-9.71,0c-2.24,0-4.47,0-6.71,.01c-4.7,0-9.4,0-14.1-.01c-6.03-.01-12.07,0-18.1,0c-4.63,.01-9.25,.01-13.88,0c-2.22,0-4.45,0-6.68,.01c-3.1,0-6.21-.01-9.31-.01c-.93,0-1.86,0-2.82,.01c-6.35-.03-6.35-.03-7.46-1.14c-1.17-12.63,1.1-23.07,9.27-33.12c5.54-6.02,11.16-10.75,18.73-13.88c.63-.27,1.26-.53,1.91-.81c6.65-2.52,12.91-2.64,19.97-2.56Z" fill="#F9FBFD" /><path d="M883.5,478.69c.97-.01,1.94-.01,2.93-.01c13.73,.1,23.43,3.95,34.88,11.51c10.13,10.59,14.08,20.46,13.89,34.87C935,528,935,528,934,530c-23.76,0-47.52,0-72,0c-.16-2.47-.16-2.47-1-15c-1.83-7.78-4.59-15.83-9.72-22.1c-.21-.31-.21-.31-1.28-1.9c1.27-3.81,2.46-4.13,5.94-6c.89-.49,1.79-.99,2.71-1.5c8.34-3.73,15.75-4.96,24.85-4.81Z" fill="#89BFFC" /><path d="M901,418c6.26,4.15,10.62,9.87,13,17c.74,9.95,1.03,18.56-5,27c-.59,.83-1.17,1.67-1.77,2.53c-5.05,5.6-12.56,8.85-19.91,10.09c-8.89,.32-15.45-1.67-22.35-7.26c-6.35-5.96-9.61-12.11-10.21-20.85c-.21-10.7,1.09-16.36,8.49-24.26c10.66-9.99,24.71-11.9,37.75-4.25Z" fill="#8AC0FC" /><path d="M819.69,419.63c8.43,8.66,10.57,15.11,10.46,26.95c-.38,8.47-3.64,14.26-9.84,20.05c-7.52,6.22-14.06,8.14-23.88,7.81c-8.13-1.04-14.26-5.26-19.73-11.23c-6.45-8.39-6.87-18.04-5.7-28.21c2.5-8.86,8.57-14.05,16-19c11.61-3.92,22.29-2.66,32.69,3.63Z" fill="#F9FBFD" /><path d="M1294,231c4.97,3.1,8.74,8.11,10.56,13.72c.57,2.96,.55,5.77,.54,8.8c0,1.12-.01,2.25-.01,3.41c-.01,1.43-.02,2.85-.03,4.32c-.02,4.54-.04,9.08-.06,13.75c-17.16,0-34.32,0-52,0c-.1-4.6-.21-9.2-.31-13.94c-.05-1.43-.09-2.86-.14-4.34c-.1-9.31,1.36-14.99,7.44-22.02c10.81-9.02,21.47-10.26,34.01-3.7Z" fill="#031936" /><path d="M368.4,560.7c.88,0,1.75,0,2.66,0c.9-.01,1.8-.01,2.73-.01c1.9-.01,3.81-.01,5.71-.01c2.92,.01,5.84-.02,8.76-.04c1.85,0,3.7,0,5.55,0c.87-.01,1.75-.02,2.65-.03c.81,.01,1.63,.01,2.47,.02c.71,0,1.43,0,2.17,0c2.52,.49,3.39,1.32,4.9,3.37c.3,3.05,.42,5.89,.4,8.94c0,.87,0,1.75,.01,2.65c0,1.86-.01,3.71-.02,5.56c-.01,2.84,0,5.68,.02,8.51c0,1.8-.01,3.6-.01,5.4c0,.85,.01,1.7,.02,2.58c-.07,5.89-.07,5.89-1.69,8.08c-2.11,1.56-3.2,1.65-5.8,1.65c-.82,.01-1.63,.01-2.47,.02c-.87-.01-1.75-.02-2.65-.03c-.45,0-.45,0-2.73,0c-1.91,0-3.81-.01-5.71-.02c-2.92-.03-5.85-.02-8.77-.02c-1.84,0-3.69-.01-5.54-.02c-.88,0-1.76,0-2.66,0c-6.17-.07-6.17-.07-8.4-2.3c-.25-1.82-.25-1.82-.26-4.05c-.01-.84-.01-1.67-.02-2.53c.01-.9,.01-1.8,.01-2.73c0-.93,0-1.85,0-2.8c0-1.96,0-3.92,.01-5.88c.01-3,0-6-.01-9c0-1.9,0-3.8,0-5.7c0-.9,0-1.8-.01-2.73c.01-.84,.01-1.67,.02-2.53c0-.73,0-1.47,.01-2.23c.67-4.86,4.68-4.08,8.65-4.12Z" fill="#0A7AF9" /><path d="M368.4,407.7c.88,0,1.75,0,2.66,0c.9-.01,1.8-.01,2.73-.01c1.9-.01,3.81-.01,5.71-.01c2.92,.01,5.84-.02,8.76-.04c1.85,0,3.7,0,5.55,0c.87-.01,1.75-.02,2.65-.03c.81,.01,1.63,.01,2.47,.02c.71,0,1.43,0,2.17,0c2.52,.49,3.39,1.32,4.9,3.37c.3,3.05,.42,5.89,.4,8.94c0,.87,0,1.75,.01,2.65c0,1.86-.01,3.71-.02,5.56c-.01,2.84,0,5.68,.02,8.51c0,1.8-.01,3.6-.01,5.4c0,.85,.01,1.7,.02,2.58c-.07,5.89-.07,5.89-1.69,8.08c-2.11,1.56-3.2,1.65-5.8,1.65c-.82,.01-1.63,.01-2.47,.02c-.87-.01-1.75-.02-2.65-.03c-.45,0-.45,0-2.73,0c-1.91,0-3.81-.01-5.71-.02c-2.92-.03-5.85-.02-8.77-.02c-1.84,0-3.69-.01-5.54-.02c-.88,0-1.76,0-2.66,0c-6.17-.07-6.17-.07-8.4-2.3c-.25-1.82-.25-1.82-.26-4.05c-.01-.84-.01-1.67-.02-2.53c.01-.9,.01-1.8,.01-2.73c0-.93,0-1.85,0-2.8c0-1.96,0-3.92,.01-5.88c.01-3,0-6-.01-9c0-1.9,0-3.8,0-5.7c0-.9,0-1.8-.01-2.73c.01-.84,.01-1.67,.02-2.53c0-.73,0-1.47,.01-2.23c.67-4.86,4.68-4.08,8.65-4.12Z" fill="#0B7BF9" /><path d="M1303.97,220.31c7.67,6.38,13.43,14.72,15.03,24.69c.08,2.35,.11,4.7,.1,7.05c0,.66-.01,1.32-.01,2c0,2.09-.01,4.17-.03,6.26c0,1.43-.01,2.85-.01,4.27c-.01,3.47-.03,6.95-.05,10.42c-4.29,0-8.58,0-13,0c-.03-1.76-.05-3.52-.08-5.34c-.05-2.34-.11-4.69-.17-7.03c-.01-1.16-.03-2.32-.04-3.51c-.25-8.72-1.98-15.39-6.33-22.93c-6.5-5.99-14.71-8.63-23.4-8.53c-7.41,.84-13.11,4.68-17.73,10.4c-3.23,5-4.63,8.89-4.76,14.87c-.04,1.29-.07,2.58-.11,3.91c-.02,1.34-.05,2.69-.07,4.04c-.03,1.36-.07,2.73-.1,4.1c-.08,3.34-.15,6.68-.21,10.02c-4.62,0-9.24,0-14,0c-.09-4.39-.17-8.78-.22-13.18c-.02-1.49-.05-2.98-.08-4.47c-.19-8.45-.36-15.94,4.3-23.35c.48-.79,.96-1.57,1.46-2.38c1.48-1.91,2.98-3.78,4.54-5.62c.52-.62,1.05-1.24,1.59-1.88c14.18-15.45,36.89-15.74,53.38-3.81Z" fill="#64738C" /><path d="M368.4,484.7c.88,0,1.75,0,2.66,0c.9-.01,1.8-.01,2.73-.01c1.9-.01,3.81-.01,5.71-.01c2.92,.01,5.84-.02,8.76-.04c1.85,0,3.7,0,5.55,0c.87-.01,1.75-.02,2.65-.03c.81,.01,1.63,.01,2.47,.02c.71,0,1.43,0,2.17,0c2.51,.49,3.39,1.32,4.9,3.37c.27,2.99,.37,5.77,.33,8.75c0,.86-.01,1.72-.01,2.6c0,1.81-.02,3.62-.04,5.43c-.03,2.78-.04,5.55-.05,8.33c0,1.75-.02,3.51-.03,5.27c0,.42,0,.42-.01,2.52c-.07,5.87-.07,5.87-1.19,8.1c-.66,0-1.32,0-2,0c0,.66,0,1.32,0,2c-5.8,.07-11.6,.13-17.41,.16c-1.97,.02-3.95,.04-5.92,.07c-2.84,.03-5.67,.05-8.51,.06c-.88,.02-1.77,.03-2.68,.05c-.82,0-1.64,0-2.49,0c-.36,0-.36,0-2.19,.02C362,531,362,531,360,528c-.25-1.9-.25-1.9-.26-4.07c-.01-.82-.01-1.63-.02-2.47c0-.44,0-.44,.01-2.65c0-.9,0-1.8,0-2.73c0-1.91,0-3.81,.01-5.71c.01-2.92,0-5.85-.01-8.77c0-1.84,0-3.69,0-5.54c0-.44,0-.44-.01-2.66c.06-7.53,1.15-8.61,8.68-8.7Z" fill="#0A7BF9" /><path d="M585,248c4.97,4.16,9.64,8.5,14.22,13.09c.33,.33,.33,.33,2,2c1.39,1.39,2.78,2.78,4.17,4.17c2.1,2.11,4.21,4.21,6.32,6.31c1.36,1.36,2.71,2.72,4.07,4.08c.62,.62,1.24,1.23,1.88,1.87c3.75,3.77,7.29,7.66,10.76,11.68c1.91,2.18,3.92,4.23,5.98,6.26c.75,.74,1.49,1.48,2.26,2.24c.75,.74,1.5,1.48,2.28,2.24c1.53,1.5,3.06,3.01,4.59,4.52c.66,.66,1.33,1.32,2.02,1.99C647,310,647,310,647,311c-7.7,.15-15.41,.26-23.11,.33c-2.62,.03-5.24,.07-7.86,.12c-3.77,.08-7.54,.11-11.32,.14c-1.16,.03-2.33,.06-3.53,.09c-4.97,0-9.22-.06-13.43-2.9c-3.68-3.84-3.55-8.05-3.54-13.15c.03-1.22,.07-2.43,.11-3.68c.01-1.26,.02-2.52,.03-3.81c.03-3.33,.09-6.65,.17-9.98c.07-3.39,.1-6.79,.14-10.19c.08-6.66,.19-13.31,.34-19.97Z" fill="#CCD1DA" /><path d="M439.76,414.75c.7-.01,1.4-.01,2.13-.01c2.36-.01,4.73-.01,7.09,0c1.7,0,3.39-.01,5.08-.01c4.6-.01,9.21,0,13.81,0c4.81,.01,9.62,0,14.43,0c8.07-.01,16.15,0,24.23,.01c9.35,.01,18.69,.01,28.04,0c8.02-.01,16.03-.01,24.05-.01c4.79,0,9.58,0,14.38,0c4.5-.01,9,0,13.51,.01c1.66,0,3.31,0,4.97-.01c2.25,0,4.51,.01,6.76,.02c1.27,0,2.53,0,3.83,0C605,415,605,415,607,417c.25,2.5,.25,2.5,0,5c-2,2-2,2-4.93,2.25c-1.27-.01-2.54-.01-3.84-.01c-.7,0-1.41,0-2.13,.01c-2.37,0-4.75-.01-7.12-.02c-1.69,0-3.39,0-5.08,0c-4.61,0-9.22-.01-13.83-.03c-4.82-.01-9.64-.01-14.45-.01c-9.12-.01-18.25-.03-27.37-.05c-10.38-.02-20.77-.03-31.15-.04c-21.37-.02-42.73-.06-64.1-.1c0-.66,0-1.32,0-2c-.66,0-1.32,0-2,0c-.12-2.37-.12-2.37,0-5c2.85-2.85,4.76-2.25,8.76-2.25Z" fill="#C8CDD6" /><path d="M439.64,491.87c.35,0,.35,0,2.12-.01c2.37-.01,4.74-.01,7.11-.01c1.69,0,3.38,0,5.08-.01c4.6,0,9.21-.01,13.82-.01c3.84,0,7.68,0,11.52-.01c9.05,0,18.11-.01,27.16-.01c9.36,.01,18.71-.01,28.07-.02c8.02-.01,16.04-.02,24.06-.02c4.79,0,9.59,0,14.39-.01c4.5-.01,9.01-.01,13.52,0c1.66,0,3.32-.01,4.98-.01c2.25-.01,4.51,0,6.77,0c1.26,0,2.53,0,3.83,0C605,492,605,492,607,494c-.56,4.56-.56,4.56-2,6c-2.21,.1-4.42,.13-6.64,.13c-.35,0-.35,0-2.12,.01c-2.37,.01-4.74,.01-7.11,.01c-1.69,0-3.38,0-5.08,.01c-4.6,0-9.21,.01-13.82,.01c-3.84,0-7.68,0-11.52,.01c-9.05,0-18.11,.01-27.16,.01c-9.36-.01-18.71,.01-28.07,.02c-8.02,.01-16.04,.02-24.06,.02c-4.79,0-9.59,0-14.39,.01c-4.5,.01-9.01,.01-13.52,0c-1.66,0-3.32,.01-4.98,.01c-2.25,.01-4.51,0-6.77,0c-1.26,0-2.53,0-3.83,0C433,500,433,500,431,498c.8-6.55,2.33-6.13,8.64-6.13Z" fill="#C2C8D2" /><path d="M1226,561c2.18,.09,2.18,.09,5,1c1.92,2.16,3.51,4.19,5.13,6.56c.46,.67,.93,1.33,1.42,2.01c1.5,2.14,2.98,4.28,4.45,6.43c.99,1.44,1.99,2.87,2.98,4.31c2.27,3.28,4.52,6.56,6.75,9.87c.88,1.26,1.79,2.49,2.74,3.7c1.26,1.64,2.41,3.38,3.53,5.12c-.37,2.21-.37,2.21-1,4c-5.72,.46-8.49-.48-13-4c-3.45,1.43-5.1,3.1-7.25,6.13c-.52,.72-1.04,1.44-1.58,2.19c-.19,.28-.19,.28-1.17,1.68c-2.23-.13-2.23-.13-5-1c-2.2-2.62-2.2-2.62-4.25-5.87c-.69-1.07-1.37-2.14-2.08-3.25C1221,597,1221,597,1220,594c-.58,.43-1.16,.87-1.76,1.31c-6.4,4.57-6.4,4.57-10.61,5.19c-2.63-.5-2.63-.5-5.63-2.5c.6-2.92,1.45-4.96,3.15-7.4c.22-.32,.22-.32,1.34-1.93c.48-.68,.96-1.35,1.45-2.04c.49-.7,.97-1.4,1.48-2.12c4.15-5.94,8.35-11.84,12.58-17.72c1.37-1.91,2.7-3.84,4-5.79Z" fill="#66758D" /><path d="M463.69,349.87c1.23-.01,2.47-.01,3.74-.02c1.38,0,2.76,0,4.15,0c1.44,0,2.89,0,4.33-.01c3.94,0,7.87-.01,11.81-.01c3.28,0,6.56,0,9.84-.01c7.74,0,15.47-.01,23.21-.01c7.99,.01,15.99-.01,23.98-.02c6.85-.01,13.7-.02,20.55-.02c4.1,0,8.2,0,12.3-.01c3.85-.01,7.7-.01,11.55,0c1.42,0,2.83-.01,4.25-.01c1.93-.01,3.86,0,5.79,0c1.08,0,2.16,0,3.27,0C605,350,605,350,607,352c-.56,4.56-.56,4.56-2,6c-1.89,.1-3.79,.13-5.69,.13c-1.23,.01-2.47,.01-3.74,.02c-1.38,0-2.76,0-4.15,0c-1.44,0-2.89,0-4.33,.01c-3.94,0-7.87,.01-11.81,.01c-3.28,0-6.56,0-9.84,.01c-7.74,0-15.47,.01-23.21,.01c-7.99-.01-15.99,.01-23.98,.02c-6.85,.01-13.7,.02-20.55,.02c-4.1,0-8.2,0-12.3,.01c-3.85,.01-7.7,.01-11.55,0c-1.42,0-2.83,.01-4.25,.01c-1.93,.01-3.86,0-5.79,0c-1.08,0-2.16,0-3.27,0C458,358,458,358,456,356c.74-6.07,1.81-6.12,7.69-6.13Z" fill="#C4C9D3" /><path d="M1138,428c13.53,0,27.06,0,41,0c0,4.99-1.31,6.03-4.5,9.75c-.42,.49-.42,.49-2.53,2.98c-.65,.75-1.3,1.5-1.97,2.27c1.9,4.43,5.08,7.37,8.42,10.78c.26,.37,.26,.37,1.58,2.22c-.33,1.32-.66,2.64-1,4c-13.53,0-27.06,0-41,0c0-10.56,0-21.12,0-32Z" fill="#FA5D14" /><path d="M438.04,439.87c1.09-.01,2.19-.01,3.31-.02c1.21,0,2.42,0,3.67,0c1.26,0,2.53,0,3.83-.01c3.48,0,6.96-.01,10.44-.01c2.9,0,5.8,0,8.7-.01c6.84,0,13.68-.01,20.52-.01c7.06,.01,14.13-.01,21.19-.02c6.06-.01,12.12-.02,18.18-.02c3.62,0,7.24,0,10.86-.01c4.04-.01,8.08-.01,12.12,0c1.2-.01,2.41-.01,3.65-.02c1.1,0,2.19,.01,3.32,.01c.48,0,.48,0,2.9,0C563,440,563,440,565,442c-.56,4.56-.56,4.56-2,6c-1.68,.1-3.36,.13-5.04,.13c-.55,.01-.55,.01-3.31,.02c-1.21,0-2.42,0-3.67,0c-.63,0-.63,0-3.83,.01c-3.48,0-6.96,.01-10.44,.01c-2.9,0-5.8,0-8.7,.01c-6.84,0-13.68,.01-20.52,.01c-7.06-.01-14.13,.01-21.19,.02c-6.06,.01-12.12,.02-18.18,.02c-3.62,0-7.24,0-10.86,.01c-4.04,.01-8.08,.01-12.12,0c-.6,.01-.6,.01-3.65,.02c-1.1,0-2.19-.01-3.32-.01c-.48,0-.48,0-2.9,0C433,448,433,448,431,446c.7-5.7,1.48-6.12,7.04-6.13Z" fill="#C3C9D3" /><path d="M1285.19,297.19c3.28,2.11,4.94,3.35,6.81,6.81c.62,3.77,.68,7.23,0,11c-.85,.95-1.69,1.9-2.56,2.88c-3.41,4.37-2.61,7.36-1.97,12.71c.75,4.83,1.57,9.62,2.53,14.41c-7.26,0-14.52,0-22,0c1.59-8.02,3.18-16.03,5-24c-.31-.14-.31-.14-1.89-.87c-2.99-1.6-3.78-3-5.11-6.13c-.72-4.73-.47-8.07,1.69-12.37c5.13-5.83,10.08-7.21,17.5-4.44Z" fill="#041B39" /><path d="M433,516c2.03-.37,2.03-.37,4.57-.36c.96,0,1.92-.01,2.91-.01c1.06,.01,2.12,.02,3.21,.03c1.11,0,2.23,0,3.37,0c3.69,0,7.38,.02,11.07,.05c2.56,0,5.11,.01,7.66,.01c6.04,.01,12.09,.03,18.13,.06c6.88,.04,13.75,.05,20.63,.07c14.15,.03,28.3,.08,42.45,.15c.38,2.33,.71,4.66,1,7c-1,1-1,1-2.92,1.12c-.42,0-.42,0-2.57,0c-.97,0-1.93,0-2.93,0c-.54,0-.54,0-3.25-.01c-.56,0-.56,0-3.4,0c-3.73,0-7.46,0-11.18-.01c-2.58,0-5.16-.01-7.73-.01c-6.11,0-12.21-.01-18.31-.02c-6.95-.01-13.89-.01-20.84-.02c-14.29-.01-28.58-.03-42.87-.05c-.62-2.31-.62-2.31-1-5c.66-.99,1.32-1.98,2-3Z" fill="#C4C9D3" /><path d="M464.38,321.73c.9,0,1.8,.01,2.72,.01c.47,0,.47,0,2.86-.01c3.13-.01,6.25,0,9.38,0c2.17,0,4.34,0,6.51,0c4.54,0,9.09,0,13.63,.01c5.84,.01,11.68,0,17.52-.01c4.47-.01,8.95,0,13.43,0c2.15,0,4.3,0,6.46,0c3-.01,6.01,0,9.01,.01c.9,0,1.79-.01,2.72-.01c6.15,.04,6.15,.04,8.38,2.27c.19,2.56,.19,2.56,0,5c-1.92,1.92-4.77,1.13-7.32,1.14c-.91-.01-1.82-.01-2.76-.01c-.95,0-1.9,0-2.89,0c-3.16,.01-6.33,.01-9.49,0c-2.2,0-4.39,0-6.58,.01c-4.6,0-9.2,0-13.8-.01c-5.9-.01-11.81,0-17.71,0c-4.53,.01-9.06,.01-13.59,0c-2.17,0-4.35,0-6.53,.01c-3.04,0-6.08-.01-9.12-.01c-.46,0-.46,0-2.75,.01c-6.23-.03-6.23-.03-8.46-1.14c-.12-2.37-.12-2.37,0-5c2.68-2.68,4.74-2.25,8.38-2.27Z" fill="#C5CAD3" /><path d="M1051.25,316.63c3.8,2.13,5.87,4.37,7.75,8.37c.7,4.8,.04,8.29-2.61,12.42c-3.15,3.59-7.05,5.2-11.7,5.96c-6.35,.33-9.73-1.83-14.5-5.94c-2.52-3.04-2.53-6.57-2.46-10.38c.54-4.1,2.67-6.76,5.81-9.32c5.8-3.79,11.47-3.87,17.71-1.11Z" fill="#42536E" /><path d="M122.86,261.72c5.42,.09,10.37,2.05,15.45,3.78c2.22,.73,4.44,1.47,6.66,2.2c1.15,.38,2.29,.76,3.48,1.15c3.59,1.16,7.21,2.27,10.83,3.36c1.18,.35,2.35,.7,3.57,1.07c2.27,.68,4.54,1.35,6.82,2.02c1.03,.31,2.07,.62,3.13,.94c.91,.27,1.82,.54,2.76,.81c2.54,.99,4.35,2.21,6.44,3.95c-.87,4.88-.87,4.88-2,6c-5.17,.31-9.31-.45-14.23-1.98c-.34-.1-.34-.1-2.04-.62c-2.16-.67-4.32-1.34-6.48-2.02c-1.49-.47-2.97-.93-4.46-1.39c-2.93-.91-5.85-1.82-8.78-2.74c-3.42-1.07-6.86-2.11-10.3-3.14c-1.69-.52-3.39-1.03-5.08-1.55c-.76-.22-1.51-.44-2.29-.67c-6.39-1.98-6.39-1.98-8.34-4.89c.56-5.86,.56-5.86,4.86-6.28Z" fill="#0F7EF9" /><path d="M168.75,185.1c3.39,1.36,5.72,3.78,8.31,6.28c.62,.58,1.24,1.17,1.87,1.77c2.37,2.27,4.72,4.56,7.07,6.85c1.11,1.08,2.23,2.15,3.34,3.23c3.09,2.98,6.17,5.99,9.23,9c1.24,1.22,2.49,2.44,3.74,3.65c1.79,1.73,3.55,3.47,5.31,5.22c.54,.52,1.09,1.04,1.65,1.57c2.34,2.36,3.65,3.79,4.13,7.14C213,232,213,232,212,233c-2.56,.5-2.56,.5-6,0c-1.8-1.3-1.8-1.3-3.7-3.04c-.7-.63-1.4-1.27-2.13-1.93c-5.87-5.49-11.63-11.1-17.35-16.75c-1.6-1.57-3.2-3.13-4.81-4.69c-2.33-2.25-4.64-4.53-6.95-6.81c-.36-.35-.36-.35-2.19-2.1c-4.85-4.87-4.85-4.87-4.94-9.1c1.18-2.85,1.69-3.66,4.82-3.48Z" fill="#0F7FFB" /><path d="M1520.75,187.56C1523,188,1523,188,1525,190c-.18,4.67-2.28,6.74-5.56,9.88c-.92,.87-1.83,1.75-2.77,2.65c-2.76,2.55-5.56,5.05-8.42,7.5c-2.93,2.56-5.77,5.2-8.62,7.85c-.56,.51-1.12,1.02-1.69,1.55c-2.64,2.43-5.26,4.87-7.82,7.38c-.87,.82-1.73,1.65-2.62,2.5c-.75,.74-1.51,1.48-2.28,2.24c-2.22,1.45-2.22,1.45-4.88,1.31C1478,232,1478,232,1476,230c.14-3.21,.7-4.67,2.86-7.07c.81-.68,1.62-1.36,2.45-2.05c.91-.78,1.82-1.56,2.75-2.37c.97-.83,1.94-1.66,2.94-2.51c1.94-1.76,3.88-3.53,5.81-5.31c1.01-.93,2.02-1.85,3.03-2.78c2.21-2.03,4.41-4.06,6.6-6.1c.57-.53,1.15-1.06,1.74-1.61c1.09-1.02,2.19-2.03,3.28-3.05c9.72-9.02,9.72-9.02,13.29-9.59Z" fill="#FD601B" /><path d="M207,682c1,1,1,1,1.29,3.32c-.37,3.41-1.34,4.23-3.85,6.49c-2.77,2.59-5.37,5.17-7.81,8.07c-3.53,4.1-7.36,7.86-11.2,11.66c-2.17,2.2-4.23,4.44-6.24,6.77c-.55,.64-1.11,1.27-1.67,1.93c-1.37,1.58-2.73,3.17-4.08,4.76c-2.44,2-2.44,2-5.69,2.38C165,727,165,727,164,726c-.49-2.95-.66-5.06,1.11-7.58c1.59-1.68,3.24-3.24,4.95-4.79c1.21-1.15,2.42-2.3,3.62-3.45c.58-.55,1.16-1.1,1.76-1.67c1.86-1.8,3.57-3.71,5.25-5.7c3.42-4.03,7.17-7.69,10.94-11.4c2.06-2.09,3.99-4.22,5.87-6.47c3.45-4.06,4.51-4.22,9.5-2.94Z" fill="#107EFA" /><path d="M174,624c.66,.66,1.32,1.32,2,2c-.06,2.44-.06,2.44-1,5c-4.18,2.99-8.92,4.64-13.69,6.44c-1.62,.62-3.25,1.24-4.87,1.86c-.78,.3-1.55,.59-2.35,.9c-2.43,.93-4.86,1.89-7.28,2.86c-.74,.3-1.48,.59-2.25,.9c-2.09,.85-4.17,1.73-6.25,2.61c-1.33,.56-2.66,1.12-4,1.68c-.62,.27-1.23,.54-1.87,.82c-4.3,1.78-7.82,2.19-12.44,1.93c-.69-2.81-.69-2.81-1-6c2.38-3.51,6.36-4.47,10.19-5.81c1.44-.53,2.88-1.05,4.33-1.58c.74-.26,1.48-.53,2.24-.8c3.57-1.29,7.12-2.61,10.68-3.93c.67-.25,1.34-.5,2.02-.76c5.87-2.21,11.55-4.73,17.23-7.37c2.9-.94,5.28-1.02,8.31-.75Z" fill="#0F7EFA" /><path d="M90.68,456.85c1.22,0,2.43-.01,3.68-.01c1.34-.01,2.67-.01,4.01-.01c1.36,0,2.72,0,4.09-.01c2.85,0,5.71-.01,8.57-.01c3.66,0,7.33-.01,11-.03c2.81-.01,5.62-.01,8.44-.01c1.35,0,2.7,0,4.05-.01c1.89-.01,3.78-.01,5.67,0c1.08,0,2.15-.01,3.26-.01C146,457,146,457,148,459c-.56,4.56-.56,4.56-2,6c-1.9,.1-3.8,.13-5.7,.13c-1.22,0-2.43,.01-3.69,.01c-1.34,0-2.68,0-4.02-.01c-1.36,0-2.72,0-4.09,.01c-2.86,0-5.72,0-8.58-.01c-3.68-.01-7.35,0-11.03,0c-2.82,.01-5.63,.01-8.45,0c-1.36,0-2.71,0-4.07,.01c-1.89,0-3.78-.01-5.67-.01c-.54,0-.54,0-3.27,0C85,465,85,465,84,464c-.12-3-.12-3,0-6c1.76-1.76,4.29-1.14,6.68-1.15Z" fill="#0877F7" /><path d="M549.63,622.46c4.9,1.11,7.64,3.44,10.37,7.54c.43,5.35,.48,8.68-3,13c-2.94,3.2-5.18,4.3-9.44,4.56c-5.06-.23-7.18-1.85-10.56-5.56c-2.08-3.68-2.74-6.83-2-11c3.57-6.34,7.27-9.15,14.63-8.54Z" fill="#0A7BFA" /><path d="M601,623c3.01,1.44,4.58,2.97,6,6c.87,4.65,.58,8.56-1.19,12.94c-2.58,2.94-4.77,4.76-8.74,5.35c-4.51,.19-7.45-.39-11.07-3.29c-3.55-3.93-3.64-7.14-3.46-12.29c.61-3.57,1.55-5.45,4.35-7.74c4.59-2.11,9.23-1.94,14.11-.97Z" fill="#0979F9" /><path d="M647,623c3.13,1.67,5.39,3.79,7,7c.58,4.76,.45,8.14-1.81,12.44c-2.21,2.58-3.82,4.36-7.28,4.86c-4.77,.03-8.12-.07-11.91-3.3c-3.13-3.67-3.57-7.1-3.43-11.78c.74-3.8,2.65-5.58,5.43-8.22c3.72-1.86,7.94-1.57,12-1Z" fill="#087AF9" /><path d="M438.33,568.87c1.14,0,2.28-.01,3.45-.01c1.24,0,2.48,.01,3.75,.01c1.26,0,2.52,0,3.82-.01c2.68,0,5.35,0,8.02,.01c3.44,.01,6.87,0,10.3,0c3.27-.01,6.53-.01,9.8,0c1.24,0,2.48-.01,3.75-.01c1.14,0,2.28,.01,3.45,.01c1.01,0,2.01,0,3.05,0C490,569,490,569,491,570c.13,3,.13,3,0,6c-1.72,1.72-3.97,1.14-6.31,1.15c-1.14,0-2.27,.01-3.44,.01c-1.24,.01-2.47,.01-3.75,.01c-1.26,0-2.51,0-3.81,.01c-2.67,0-5.34,.01-8.01,.01c-3.42,0-6.85,.01-10.27,.03c-3.26,.01-6.52,.01-9.78,.01c-1.23,.01-2.47,.01-3.74,.02c-.57,0-.57,0-3.45-.01c-.5,0-.5,0-3.04,.01C433,577,433,577,431,575c.72-5.87,1.62-6.12,7.33-6.13Z" fill="#C3C8D3" /><path d="M1479,687c4.42,.24,6.51,2,9.63,5c3.46,3.25,6.97,6.35,10.68,9.31c4.99,4.03,9.7,8.31,14.36,12.7c2.37,2.23,4.62,4.19,7.33,5.99c-.87,4.88-.87,4.88-2,6c-2.14,.4-2.14,.4-5,0c-2.41-1.74-4.51-3.44-6.69-5.44c-.61-.54-1.23-1.09-1.87-1.65c-1.82-1.63-3.63-3.27-5.44-4.91c-.91-.82-1.81-1.64-2.75-2.48c-1.6-1.45-3.2-2.9-4.79-4.35c-3.65-3.22-7.42-6.27-11.21-9.32c-4.21-3.46-4.21-3.46-4.5-6.35c.25-2.5,.25-2.5,2.25-4.5Z" fill="#FD6921" /><path d="M1550.04,456.87c.54,0,.54,0,3.26-.01c1.16,0,2.33,.01,3.54,.01c1.19,0,2.38,0,3.61-.01c2.53,0,5.06,.01,7.59,.01c3.88,0,7.76,0,11.64-.01c2.45,0,4.9,.01,7.35,.01c1.17,0,2.33-.01,3.54-.01c.53,0,.53,0,3.26,.01c.95,0,1.91,0,2.89,0C1599,457,1599,457,1601,458c.13,2.38,.13,2.38,0,5c-2.56,2.56-3.51,2.25-7.06,2.26c-.53,0-.53,0-3.2,.02c-1.14-.01-2.28-.01-3.46-.01c-.58,0-.58,0-3.54,0c-2.48,0-4.95,0-7.43-.01c-3.79-.01-7.59,0-11.39,.01c-2.4,0-4.8,0-7.2,0c-.57,0-.57,0-3.46,.01c-1.06-.01-2.11-.01-3.2-.02c-.93,0-1.86,0-2.82-.01C1546,465,1546,465,1544,463c-.19-2.56-.19-2.56,0-5c1.68-1.68,3.74-1.13,6.04-1.13Z" fill="#FD6922" /><path d="M1134,424c.66,.17,.66,.17,4,1c0,25.41,0,50.82,0,77c-1.65,0-3.3,0-5,0c-.02-10.02-.04-20.04-.05-30.07c-.01-4.65-.01-9.3-.03-13.96c-.01-4.48-.01-8.97-.01-13.46c-.01-1.71-.01-3.43-.02-5.14c0-2.4,0-4.79,0-7.19c-.01-.36-.01-.36-.01-2.17c.01-4.9,.01-4.9,1.12-6.01Z" fill="#D3D6E0" /><path d="M441.78,592.83c.88,0,1.76,0,2.67-.01c1.87,0,3.74-.01,5.61-.01c2.86,0,5.73-.02,8.59-.03c1.82-.01,3.63-.01,5.44-.01c.43,0,.43,0,2.61-.02c6.07,.02,6.07,.02,8.3,2.25c.19,2.56,.19,2.56,0,5c-2.14,2.14-7.03,1.16-10,1.17c-.45,0-.45,0-2.74,.01c-1.91,0-3.83,.01-5.74,.01c-2.94,0-5.88,.02-8.82,.03c-1.86,.01-3.71,.01-5.57,.01c-.88,.01-1.77,.01-2.68,.02c-6.22-.02-6.22-.02-8.45-2.25c.9-7.39,4.2-6.16,10.78-6.17Z" fill="#C5CAD4" /><path d="M1379.9,506.2c4.15,2.42,7.56,4.64,10.1,8.8c-.31,2.75-.31,2.75-1,5c-3.36-.42-5.74-1.38-8.62-3.06c-5.02-2.58-9.85-2.92-15.38-1.94c-2.27,1.15-4.22,2.45-6.27,3.95C1357,520,1357,520,1354,519.81c-.66-.27-1.32-.53-2-.81c.49-4.24,1.54-5.98,4.81-8.69c.35-.29,.35-.29,2.08-1.76c6.29-4.63,13.72-5.37,21.01-2.35Z" fill="#071D3A" /><path d="M1346.25,463.63c3.75,.37,3.75,.37,6.69,2.06c3.24,5.2,3,10.35,2.06,16.31c-2.06,3.31-2.06,3.31-5,5c-3.5,.75-3.5,.75-7,0c-3.09-2.5-4.68-5.37-5.45-9.26c-.27-5.49,.98-8.54,4.45-12.74c1-1,1-1,4.25-1.37Z" fill="#061C38" /><path d="M1391,464c7.34-.49,7.34-.49,10.44,1.81c3.11,4.36,3.22,9.02,2.56,14.19c-2.93,5.46-2.93,5.46-6,7c-2.87,.38-2.87,.38-6,0c-3.68-3.68-4.88-6.57-5.31-11.75c.02-4.67,1.75-7.42,4.31-11.25Z" fill="#051A36" /><path d="M1563,264c1,1,1,1,1.06,3.56c-.02,.81-.04,1.61-.06,2.44c-6.38,3.38-12.88,5.93-19.69,8.31c-1.02,.37-2.04,.75-3.09,1.13c-.98,.35-1.97,.69-2.98,1.05c-.89,.31-1.77,.63-2.69,.95c-2.86,.63-4.75,.33-7.55-.44c-.69-2.31-.69-2.31-1-5c2.13-2.81,4.22-3.57,7.56-4.44c6.1-1.69,11.86-4.03,17.67-6.52c3.96-1.63,6.65-2.54,10.77-1.04Z" fill="#FD641F" /><path d="M1534,635c6.21,.4,11.34,2.52,17,5c.63,.27,1.25,.53,1.9,.81c2.06,.88,4.11,1.78,6.16,2.69c.67,.28,1.34,.57,2.03,.86c4.63,2.11,4.63,2.11,5.97,4.67C1567,651,1567,651,1565,654c-7.24-.42-12.86-2.86-19.37-5.94c-1-.45-2-.91-3.02-1.38c-7.32-3.39-7.32-3.39-9.61-5.68c-.19-2.56-.19-2.56,0-5c.33-.33,.66-.66,1-1Z" fill="#FD6A22" /><path d="M1027,351c3.54,1.65,4.81,2.72,7,6c.38,2.94,.38,2.94,0,6c-2.32,2.86-4.28,4.8-8.02,5.24c-3.77,.12-6.24,.19-9.54-1.74c-2.02-3.5-2.32-6.62-1.44-10.5c3.4-4.94,6.13-5.84,12-5Z" fill="#40516C" /><path d="M394.81,496.19c.72,.27,1.45,.53,2.19,.81c-.12,3.9-1.44,5.7-4.12,8.31c-.32,.3-.32,.3-1.9,1.78c-2.68,2.59-5.07,5.39-7.5,8.21c-1.11,1.28-2.28,2.5-3.48,3.7c-3.92-.23-5.77-2.44-8.31-5.25c-.72-.77-1.44-1.54-2.18-2.33C368,509,368,509,368.27,506.2c.24-.72,.48-1.45,.73-2.2c4.37,.49,6.04,1.84,9,5c.66,0,1.32,0,2,0c1.55-1.57,1.55-1.57,3.31-3.69c.63-.72,1.25-1.45,1.89-2.19c1.07-1.26,2.14-2.53,3.19-3.8c2.22-2.49,3-3.36,6.42-3.13Z" fill="#E8F3FD" /><path d="M393,572c1.32,.66,2.64,1.32,4,2c-.38,4.93-2.84,7.3-6.31,10.5c-3.51,3.32-6.76,6.65-9.69,10.5c-4.26-.51-6.34-1.75-9.37-4.75c-.71-.68-1.42-1.35-2.15-2.05c-1.48-2.2-1.48-2.2-1.21-4.97c.24-.73,.48-1.47,.73-2.23c4.64,.63,4.64,.63,6.56,2.63c.48,.45,.95,.9,1.44,1.37c3.18-.41,4.81-1.45,7.02-3.72c.52-.54,1.05-1.08,1.6-1.63c.54-.57,1.07-1.13,1.63-1.71c.55-.57,1.11-1.14,1.68-1.72c1.36-1.4,2.72-2.81,4.07-4.22Z" fill="#EBF5FD" /><path d="M393,419c1.32,.66,2.64,1.32,4,2c0,5.44-2.17,6.71-5.85,10.44c-.79,.79-1.58,1.57-2.4,2.37c-.78,.8-1.55,1.6-2.36,2.43c-.75,.75-1.5,1.5-2.28,2.28c-.69,.69-1.38,1.38-2.1,2.1C380,442,380,442,377.86,441.81c-3.72-1.62-6.36-4.68-8.86-7.81c-.94-2.94-.94-2.94-1-5c2.06-.87,2.06-.87,5-1c2.59,1.74,4.79,3.8,7,6c.21-.54,.43-1.08,.65-1.64c1.83-3.2,4.35-5.57,6.98-8.11c.51-.51,1.03-1.01,1.56-1.54c1.26-1.24,2.54-2.47,3.81-3.71Z" fill="#EAF4FD" /><path d="M1386,442c4.91,.42,6.68,2.52,10,6c4.38,3.43,7.52,4.37,13,5c.66,.66,1.32,1.32,2,2c-.37,2.63-.37,2.63-1,5c-7.14,.66-12.05-1-18-5c-2.75-2.39-5.3-4.75-7-8c.32-2.75,.32-2.75,1-5Z" fill="#081F3C" /><path d="M1352,442c.83,.17,.83,.17,5,1c-.1,4.25-1.16,6.59-4,9.63c-4.99,4.61-10.17,7.1-16.94,7.75C1333,460,1333,460,1331,458c.12-2.03,.12-2.03,1-4c1.82-.91,1.82-.91,4.13-1.5c6.78-2.01,11.71-4.51,15.87-10.5Z" fill="#061C37" /><path d="M481,653c.33,0,.66,0,1,0c.33,2.64,.66,5.28,1,8c-49.17,0-98.34,0-149,0c0-.33,0-.66,0-1c24.09-.16,24.09-.16,146-1c.33-1.98,.66-3.96,1-6Z" fill="#DBEDFC" /><path d="M1518,623c2.5,1.56,2.5,1.56,4,4c-.06,3.63-.06,3.63-1,7c-3.7,2.47-5.62,2.47-10,2c-2.66-2.23-2.95-3.62-3.37-7.06c.37-2.94,.37-2.94,1.43-4.81c3.09-1.8,5.45-1.56,8.94-1.13Z" fill="#FD651F" /><path d="M1512,278c1.88,1,1.88,1,3,3c.47,2.76,.52,5.25,0,8c-2.07,2.46-3.36,2.89-6.5,3.44c-3.4-.6-4.51-1.64-6.5-4.44c-.61-3.67-.49-5.29,1.63-8.37c3.05-2.09,4.74-2.17,8.37-1.63Z" fill="#FD601D" /><path d="M1157,628c.33,1.65,.66,3.3,1,5c-3.88,1.19-6.92,2-11,2c-.16-.83-.16-.83-1-5c3.63-2.33,6.77-2.16,11-2Z" fill="#ADB4C3" /><path d="M1116.29,712.9c.45,.01,.45,.01,2.77,.04c.92,.01,1.84,.02,2.79,.02c.71,.02,1.42,.03,2.15,.04c.63,1.88,.63,1.88,1,4c-2,2-2,2-4.16,2.2c-.41-.02-.41-.02-2.46-.07c-.82-.02-1.64-.04-2.48-.06c-.63-.02-1.25-.05-1.9-.07c-.38-1.66-.71-3.32-1-5c1-1,1-1,3.29-1.1Z" fill="#BBC1CE" /><path d="M1130,666c1.53,.25,3.05,.58,4.56,.94c.83,.19,1.66,.39,2.51,.59c.32,.08,.32,.08,1.93,.47c.56,1.94,.56,1.94,1,4c-1.88,1.88-4.5,1.18-6.99,1.23C1131,673,1131,673,1128,671c.88-3.87,.88-3.87,2-5Z" fill="#BDC3CF" /><path d="M1176,623c0,1.32,0,2.64,0,4c-3.73,2.03-5.67,3-10,3c-.33-1.32-.66-2.64-1-4c6.96-4.21,6.96-4.21,11-3Z" fill="#B3BBC8" /><path d="M1151.07,669.9c.41,.01,.41,.01,2.49,.04c.83,.01,1.66,.02,2.51,.02c.63,.02,1.27,.03,1.93,.04c.38,1.66,.71,3.32,1,5c-1,1-1,1-3.07,1.1c-.82-.01-1.64-.03-2.49-.04c-.83-.01-1.66-.02-2.51-.02c-.63-.02-1.27-.03-1.93-.04c-.38-1.66-.71-3.32-1-5c1-1,1-1,3.07-1.1Z" fill="#B1B9C6" /><path d="M1137,632c.33,1.65,.66,3.3,1,5c-3.3,.66-6.6,1.32-10,2c-.16-.83-.16-.83-1-5c3.4-2.09,6.05-2.18,10-2Z" fill="#BCC2CF" /><path d="M1184,705c.33,1.32,.66,2.64,1,4c-3.33,2.19-6.04,3.43-10,4c-.16-.82-.16-.82-1-5c3.73-2.03,5.67-3,10-3Z" fill="#B6BBC9" /><path d="M1118,657c2.31,2.25,2.31,2.25,4,5c-.25,2.31-.25,2.31-1,4c-4,0-4,0-6.75-2.31C1112,661,1112,661,1112,658c2-1,2-1,6-1Z" fill="#AEB6C6" /><path d="M1167,673c3.3,0,6.6,0,10,0c.38,1.66,.71,3.32,1,5c-.33,.33-.66,.66-1,1c-1.53-.09-3.05-.25-4.56-.44c-.42-.05-.42-.05-2.51-.31c-.63-.08-1.27-.16-1.93-.25c-.16-.82-.16-.82-1-5Z" fill="#BCC2CE" /><path d="M1118.25,640.25c.29,.12,.29,.12,1.75,.75c0,4.28-.71,5.56-3,9c-1.65-.33-3.3-.66-5-1c-.37-3.33-.27-4.63,1.75-7.37c2.25-1.63,2.25-1.63,4.5-1.38Z" fill="#B9C1CF" /><path d="M1176,574c1.75,.06,1.75,.06,4,1c1.6,2.24,2.75,4.54,4,7c-.99,.99-1.98,1.98-3,3c-3-1-3-1-4.75-3.25c-1.44-3.16-1.27-4.5-.25-7.75Z" fill="#B2BAC8" /><path d="M1134,713c3.63,0,7.26,0,11,0c.33,1.32,.66,2.64,1,4c-1,1-1,1-3.5,1.1c-.51-.01-.51-.01-3.06-.04c-1.01-.01-2.03-.02-3.07-.02c-.78-.02-1.56-.03-2.37-.04c0-1.65,0-3.3,0-5Z" fill="#BABFCD" /><path d="M1157.29,710.9c.45,.01,.45,.01,2.77,.04c.92,.01,1.84,.02,2.79,.02c.71,.02,1.42,.03,2.15,.04c0,1.65,0,3.3,0,5c-3.3,.33-6.6,.66-10,1c-.38-1.66-.71-3.32-1-5c1-1,1-1,3.29-1.1Z" fill="#BEC4D2" /><path d="M1186,590c3,1,3,1,4.25,3.25c.83,3.03,.6,4.76-.25,7.75c-1.65-.33-3.3-.66-5-1c-.33-2.97-.66-5.94-1-9c.66-.33,1.32-.66,2-1Z" fill="#C1C7D4" /><path d="M1186,678c4.31,.48,6.17,1.75,9,5c-1,3-1,3-2.75,3.94c-3.39,.09-4.84-1.73-7.25-3.94c.33-1.65,.66-3.3,1-5Z" fill="#C1C6D2" /><path d="M1184,609c1.65,.33,3.3,.66,5,1c-.53,3.82-1.5,6.06-4,9c-1.32-.33-2.64-.66-4-1c.5-3.73,.87-5.81,3-9Z" fill="#BBC1CF" /><path d="M1167,560c3.37,1.39,4.99,2.98,7,6c-.66,1.32-1.32,2.64-2,4c-2.72-.38-3.84-.84-5.81-2.81c-1.19-2.19-1.19-2.19-.94-4.38C1166,561,1166,561,1167,560Z" fill="#B8C0CF" /><path d="M1192,692c1.65,0,3.3,0,5,0c-.75,6.63-.75,6.63-3,10c-1.32-.33-2.64-.66-4-1c.88-6.75,.88-6.75,2-9Z" fill="#BBC2D0" /><path d="M1095,713c2.64,0,5.28,0,8,0c.38,1.66,.71,3.32,1,5c-1,1-1,1-2.85,1.1c-2.05-.03-4.1-.07-6.15-.1c0-1.98,0-3.96,0-6Z" fill="#B7BDCB" /><path d="M1178,456c.66,0,1.32,0,2,0c-.33,1.32-.66,2.64-1,4c-13.53,0-27.06,0-41,0c0-.33,0-.66,0-1c12.87-.33,25.74-.66,39-1c.33-.66,.66-1.32,1-2Z" fill="#C7521B" /><path d="M858,171c.66,.33,1.32,.66,2,1c-2.31,2.31-4.62,4.62-7,7c.66,1.32,1.32,2.64,2,4c0,.99,0,1.98,0,3c-1.98-1.65-3.96-3.3-6-5c1.38-3.21,2.92-5.05,5.63-7.25c.63-.52,1.26-1.04,1.91-1.58c.24-.19,.24-.19,1.46-1.17Z" fill="#182742" /><path d="M855,745c.33,.66,.66,1.32,1,2c-4.62,5.88-4.62,5.88-8,7c1.56-3.82,4.04-6.19,7-9Z" fill="#24314C" /><path d="M970,508c1.98,2.92,1.99,4.12,1.63,7.75c-.21,1.07-.42,2.15-.63,3.25c-.66-.33-1.32-.66-2-1c-.12-7.75-.12-7.75,1-10Z" fill="#343C55" /><path d="M863,737c.33,.99,.66,1.98,1,3c-.99,.83-.99,.83-6,5c-.66-.33-1.32-.66-2-1c2.31-2.31,4.62-4.62,7-7Z" fill="#212B44" /></g></svg>
